<svg viewBox="0 0 100 125" xmlns="http://www.w3.org/2000/svg" fill-rule="evenodd" clip-rule="evenodd" stroke-linejoin="round" stroke-miterlimit="2"><path d="M50 24.5a33 33 0 00-33 33v51h13.9a26.4 26.4 0 0038.2 0h14v-51a33 33 0 00-33.1-33zm0 11.7c10 0 18.3 7.2 20.1 16.7H30A20.5 20.5 0 0150 36.2zm6.6 56.6H43.4a3 3 0 010-6h13.2a3 3 0 110 6zm13.9-9.2a38.1 38.1 0 00-41 0v-27-1.2h2V63a7.6 7.6 0 1015.2 0v-7.7h23.7v28.3z" fill-rule="nonzero"/><path d="M50.7 57.4a2.6 2.6 0 00-2.6 2.6v11.4a2.6 2.6 0 005.2 0V60c0-1.4-1.1-2.6-2.6-2.6z" fill-rule="nonzero"/><circle cx="62.1" cy="62.4" r="4.3"/><path d="M46.3 5.9h7.4c0 1.5.3 2.6.6 3.4.4.7 1 1.4 1.9 2 .9.5 2 .8 3.2 1 1 .2 2.7.3 5.1.3 4 0 6.7.2 8.3.5 1.6.4 2.8 1 3.8 2s1.7 2.4 2.2 4.2c.4 1.3.6 3.2.6 5.9v1.6H72a15 15 0 00-.4-4.4c-.3-.6-.7-1-1.2-1.4-.5-.3-1.4-.4-2.7-.4l-7.3-.3c-2-.1-3.6-.4-4.9-.8a10 10 0 01-3-1.6c-.9-.7-1.7-1.7-2.6-3-.7 1.1-1.5 2.1-2.4 2.9-1 .7-2 1.3-3.4 1.7a23 23 0 01-5.3.8l-6.5.2c-1.3 0-2.3.2-2.8.5a3 3 0 00-1.2 1.5c-.3.7-.4 2.1-.4 4.3h-7.4v-1.6c0-2.8.3-4.9.7-6.3a8.6 8.6 0 012.2-3.8c1-1 2.3-1.6 3.8-2 1.4-.3 3.8-.5 7-.5 3.8 0 6.2-.2 7.3-.5a6.4 6.4 0 003.5-2c.7-1 1.1-2.3 1.2-4.2z" fill-rule="nonzero"/></svg>